<svg version="1.2" xmlns="http://www.w3.org/2000/svg" viewBox="0 0 1475 509" width="360" height="124"><style>.a{fill:none;stroke:#4db648;stroke-width:35}.b{fill:#212b36}</style><path class="a" d="m254.5 465.2c-117.5 0-212.4-94.2-212.4-210.7 0-116.5 94.9-210.7 212.4-210.7 117.5 0 212.4 94.2 212.4 210.7 0 116.5-94.9 210.7-212.4 210.7z"/><path class="a" d="m221.3 255.5l222.8-0.9v4.4l-222.8 0.9z"/><path class="b" d="m583.5 325h81.5v-28.2h-50.5v-112.6h-31zm99.6-122.5c0 9.9 8 18.2 18.2 18.2 9.9 0 18.2-8.3 18.2-18.2 0-10.1-8.3-18.2-18.2-18.2-10.2 0-18.2 8.1-18.2 18.2zm33.7 122.5v-91.2h-31.1v91.2zm57-45.5c0-12 9.3-22.8 21.7-22.8 12.4 0 21.7 10.8 21.7 22.8 0 12-9.3 22.8-21.7 22.8-12.4 0-21.7-10.8-21.7-22.8zm0 97.3v-62.7c6.2 9.3 19.4 13 31.2 13 25.9 0 45.4-22.3 45.4-47.6 0-25.3-19.5-47.8-45.4-47.8-11.8 0-23.2 3.3-31.2 13.2v-11.1h-31.1v143zm167.7-97.3c0 12-9.3 22.8-21.7 22.8-12.5 0-21.8-10.8-21.8-22.8 0-12 9.3-22.8 21.8-22.8 12.4 0 21.7 10.8 21.7 22.8zm31-45.5h-31v10.9c-8.1-9.9-19.7-13.2-31.3-13.2-25.8 0-45.3 22.5-45.3 47.8 0 25.3 19.5 47.6 45.3 47.6 11.6 0 25.1-3.7 31.3-13v10.9h31zm95.3-22.7c13.6 0 27.7 5.6 34.5 20.5h34.2c-9.7-29.2-37.7-49.5-68.7-49.5-39.8 0-72.5 32.7-72.5 72.4 0 39.8 32.7 72.5 72.5 72.5 40.1 0 72.2-32.5 72.2-72.5v-4.7h-69.3v23.4h35.8c-7.7 21.3-25.1 25.6-38.7 25.6-22.4 0-41-20-41-43.8 0-23.9 18.6-43.9 41-43.9zm163.3 68.3c0 12-9.3 22.8-21.7 22.8-12.5-0.1-21.8-10.8-21.8-22.8 0-12 9.3-22.8 21.8-22.8 12.4 0 21.7 10.8 21.7 22.8zm31-45.6h-31v11c-8.1-9.9-19.7-13.2-31.3-13.2-25.8 0-45.3 22.5-45.3 47.8 0 25.2 19.5 47.6 45.3 47.6 11.6 0 25.1-3.7 31.3-13.1v11h31zm109.3 27.6c-2.7-21-20.3-29.9-44.3-29.9-30.2 0-44.5 10.4-44.5 29 0 33.1 59 18 59 37.3 0 5-6 7.6-13 7.6-6.8 0-19.1-0.8-19.1-14.4h-30.8c1.7 25.8 22.1 36 49.3 36 26.5 0 44.9-7.9 44.9-29.4 0-38.5-59-25.5-59-38.3 0-5.4 6.4-8.5 12.4-8.5 6 0 13.7 2.3 14.7 10.6z"/><path class="b" d="m1433.9 64.5c2.9 0 5.2 2 5.2 4.6 0 2.4-2.3 4.4-5.2 4.4h-3.9v-9zm16.1 31.2l-9.7-16.7c4.9-3.2 7-6.4 7-9.9 0-6.4-6.1-11.6-13.4-11.6h-11.9v38.2h8.1v-15.3h2.7l7.1 15.3zm11.5-19.1c0 15.2-12.6 27.3-28.3 27.3-15.5 0-28.3-12.1-28.3-27.3 0-15.1 12.8-27.2 28.3-27.2 15.7 0 28.3 12.1 28.3 27.2zm10 0c0-20.3-17.3-36.9-38.3-36.9-20.9 0-38.2 16.6-38.2 36.9 0 20.4 17.3 37 38.2 37 21 0 38.3-16.6 38.3-37z"/></svg>