<svg version="1.2" xmlns="http://www.w3.org/2000/svg" viewBox="0 0 512 512" width="512" height="512"><style>.a{fill:none;stroke:#4db648;stroke-width:35}.b{fill:#212b36}</style><path class="a" d="m248.9 476.4c-117 0-211.6-94.6-211.6-211.5 0-117 94.6-211.6 211.6-211.6 116.9 0 211.5 94.6 211.5 211.6 0 116.9-94.6 211.5-211.5 211.5z"/><path class="a" d="m215.8 265.8l221.9-0.9v4.5l-221.9 0.9z"/><path class="b" d="m466 26.7c1.7 0 3 1.1 3 2.6 0 1.4-1.3 2.5-3 2.5h-2.3v-5.1zm9.3 17.9l-5.6-9.6c2.8-1.8 4-3.7 4-5.7 0-3.7-3.5-6.7-7.7-6.7h-6.8v22h4.6v-8.8h1.6l4.1 8.8zm6.6-11c0 8.7-7.3 15.7-16.3 15.7-8.9 0-16.2-7-16.2-15.7 0-8.7 7.3-15.6 16.2-15.6 9 0 16.3 6.9 16.3 15.6zm5.7 0c0-11.7-9.9-21.2-22-21.2-12 0-22 9.5-22 21.2 0 11.7 10 21.3 22 21.3 12.1 0 22-9.6 22-21.3z"/></svg>