<svg id="Layer_1" data-name="Layer 1" xmlns="http://www.w3.org/2000/svg" viewBox="0 0 132.72 181.88"><defs><style>.cls-1{fill:none;stroke:#4db648;stroke-miterlimit:10;stroke-width:8.53px;}.cls-2{fill:#4db648;}</style></defs><path class="cls-1" d="M98.81,132.13c-33.93,0-61.33-27.2-61.33-60.84s27.4-60.83,61.33-60.83,61.32,27.2,61.32,60.83S132.73,132.13,98.81,132.13Z" transform="translate(-32.45 -6.2)"/><path class="cls-1" d="M89.22,71.58l64.33-.26v1.27l-64.33.26Z" transform="translate(-32.45 -6.2)"/><path class="cls-2" d="M32.45,179.37h13.7v-4.75H37.66V155.69H32.45Zm16.74-20.6a3.06,3.06,0,1,0,3.06-3.06A3.06,3.06,0,0,0,49.19,158.77Zm5.67,20.6V164H49.63v15.34Zm9.58-7.65a3.65,3.65,0,1,1,3.65,3.83A3.77,3.77,0,0,1,64.44,171.72Zm0,16.35V177.53c1,1.57,3.26,2.19,5.25,2.19a8,8,0,0,0,0-16,6.39,6.39,0,0,0-5.25,2.22V164H59.21v24Zm28.2-16.35A3.66,3.66,0,1,1,89,167.88,3.77,3.77,0,0,1,92.64,171.72Zm5.21-7.65H92.64v1.83a6.48,6.48,0,0,0-5.26-2.22,8,8,0,0,0,0,16c2,0,4.22-.62,5.26-2.19v1.84h5.21Zm16-3.82a6,6,0,0,1,5.8,3.45h5.75a12.28,12.28,0,1,0,.59,3.85v-.79H114.36v3.93h6c-1.3,3.58-4.22,4.3-6.51,4.3a7.39,7.39,0,0,1,0-14.74Zm27.46,11.48a3.66,3.66,0,1,1-3.65-3.83A3.77,3.77,0,0,1,141.33,171.73Zm5.21-7.66h-5.21v1.85a6.51,6.51,0,0,0-5.27-2.22,8,8,0,0,0,0,16c1.95,0,4.22-.63,5.27-2.21v1.85h5.21Zm18.37,4.64c-.45-3.53-3.41-5-7.44-5-5.08,0-7.49,1.75-7.49,4.88,0,5.56,9.92,3,9.92,6.27,0,.84-1,1.27-2.18,1.27s-3.21-.13-3.21-2.42h-5.18c.28,4.34,3.71,6.06,8.29,6.06s7.55-1.33,7.55-5c0-6.47-9.92-4.28-9.92-6.44,0-.9,1.07-1.43,2.08-1.43a2.21,2.21,0,0,1,2.47,1.79Z" transform="translate(-32.45 -6.2)"/></svg>