<svg id="Layer_1" data-name="Layer 1" xmlns="http://www.w3.org/2000/svg" viewBox="0 0 342.18 111.19"><defs><style>.cls-1{fill:none;stroke:#4db648;stroke-miterlimit:10;stroke-width:8.53px;}.cls-2{fill:#4db648;}</style></defs><path class="cls-1" d="M62.33,113.33A51.33,51.33,0,1,1,114.08,62,51.49,51.49,0,0,1,62.33,113.33Z" transform="translate(-6.33 -6.41)"/><path class="cls-1" d="M54.25,62.24,108.52,62V63.1l-54.27.22Z" transform="translate(-6.33 -6.41)"/><path class="cls-2" d="M137.27,77.25h21.8V69.7H145.56V39.57h-8.29Zm26.65-32.78a4.87,4.87,0,0,0,4.87,4.87,4.87,4.87,0,1,0,0-9.74A4.84,4.84,0,0,0,163.92,44.47Zm9,32.78V52.85h-8.33v24.4Zm15.25-12.18A5.81,5.81,0,1,1,194,71.18,6,6,0,0,1,188.19,65.07Zm0,26V74.33c1.66,2.49,5.19,3.48,8.35,3.48,6.93,0,12.15-6,12.15-12.74s-5.22-12.79-12.15-12.79c-3.16,0-6.21.89-8.35,3.54v-3h-8.32V91.11Zm44.87-26a5.83,5.83,0,1,1-5.8-6.1A6,6,0,0,1,233.06,65.07Zm8.3-12.17h-8.3v2.92a10.33,10.33,0,0,0-8.37-3.54c-6.91,0-12.12,6-12.12,12.79s5.21,12.74,12.12,12.74c3.1,0,6.72-1,8.37-3.48v2.92h8.3Zm25.5-6.08c3.64,0,7.41,1.5,9.23,5.49h9.16a19.57,19.57,0,1,0,.93,6.13V57.18H267.64v6.26h9.58c-2.06,5.7-6.72,6.85-10.36,6.85-6,0-11-5.35-11-11.72S260.87,46.82,266.86,46.82Zm43.7,18.28a5.83,5.83,0,1,1-5.81-6.1A6,6,0,0,1,310.56,65.1Zm8.3-12.2h-8.3v2.94c-2.17-2.65-5.27-3.53-8.38-3.53-6.9,0-12.12,6-12.12,12.79s5.22,12.74,12.12,12.74c3.11,0,6.72-1,8.38-3.51v3h8.3Zm29.24,7.38c-.72-5.61-5.43-8-11.85-8-8.08,0-11.91,2.79-11.91,7.76,0,8.86,15.79,4.82,15.79,10,0,1.33-1.61,2-3.48,2s-5.11-.22-5.11-3.85H323.3c.45,6.9,5.91,9.63,13.19,9.63,7.09,0,12-2.11,12-7.87,0-10.3-15.78-6.82-15.78-10.25,0-1.44,1.71-2.27,3.31-2.27s3.67.61,3.94,2.83Z" transform="translate(-6.33 -6.41)"/></svg>